<?xml version="1.0" encoding="utf-8"?>
<!-- Generator: Adobe Illustrator 18.1.1, SVG Export Plug-In . SVG Version: 6.00 Build 0)  -->
<!DOCTYPE svg PUBLIC "-//W3C//DTD SVG 1.1//EN" "http://www.w3.org/Graphics/SVG/1.1/DTD/svg11.dtd">
<svg version="1.1" id="Layer_1" xmlns="http://www.w3.org/2000/svg" xmlns:xlink="http://www.w3.org/1999/xlink" x="0px" y="0px"
	 viewBox="0 0 80 80" enable-background="new 0 0 80 80" xml:space="preserve">
<polyline fill="#FFFFFF" points="2.2,41.8 7.5,51.5 68.7,48.7 76.3,42.8 58.7,11.3 13.5,27.2 "/>
<g>
	<path fill="#CCD7E2" d="M13.1,39.7C14.7,33,20.9,28,28.1,28c2.9,0,5.6,0.8,8,2.3C40.2,26.9,45.5,25,51,25c6.2,0,12,2.4,16.5,6.8
		c3.6,3.5,5.9,8,6.8,12.8c0.8,0.4,1.4,0.8,2.1,1.1c2.2-2.4,3.6-5.8,3.6-9.3c0-6.4-4.4-11.7-10.4-13.2C69.4,13.1,61.1,5,51,5
		c-5.9,0-11.2,2.8-14.6,7.1c-1.9-2.5-4.9-4-8.2-4c-5.8,0-10.5,4.6-10.5,10.5c0,0.5,0,1,0.1,1.5C16.9,20,16,19.9,15,19.9
		c-8.3-0.1-15,6.6-15,15c0,3.4,1.1,6.5,3,9C5.9,41.6,9.4,40.1,13.1,39.7L13.1,39.7z"/>
	<path fill="#A6B6BF" d="M69.6,48.1C75.6,49.6,80,55,80,61.4C80,68.9,73.9,75,66.4,75l0,0H15.1C6.7,75,0,68.2,0,59.9
		s6.8-15.1,15.1-15.1c0.9,0,1.9,0.1,2.8,0.2c-0.1-0.5-0.1-1-0.1-1.5c0-5.8,4.6-10.5,10.5-10.5c3.4,0,6.4,1.6,8.3,4
		c3.4-4.4,8.6-7.1,14.6-7.1C61.1,30,69.4,38.1,69.6,48.1L69.6,48.1L69.6,48.1z"/>
</g>
<path fill="#FFFFFF" d="M21.2,41.2"/>
</svg>
