<?xml version="1.0" encoding="utf-8"?>
<!-- Generator: Adobe Illustrator 18.1.1, SVG Export Plug-In . SVG Version: 6.00 Build 0)  -->
<!DOCTYPE svg PUBLIC "-//W3C//DTD SVG 1.1//EN" "http://www.w3.org/Graphics/SVG/1.1/DTD/svg11.dtd">
<svg version="1.1" id="Layer_1" xmlns="http://www.w3.org/2000/svg" xmlns:xlink="http://www.w3.org/1999/xlink" x="0px" y="0px"
	 viewBox="0 0 80 80" enable-background="new 0 0 80 80" xml:space="preserve">
<g>
	<path fill="#0964B7" d="M35,67.5c0,1.4-1.1,2.5-2.5,2.5S30,68.9,30,67.5c0-2.8-2.2-5-5-5s-5,2.2-5,5C20,74.4,25.8,80,32.6,80
		s12.5-5.6,12.5-12.5V53c-3.3,0-6.8,0-10.1,0V67.5z"/>
	
		<linearGradient id="SVGID_1_" gradientUnits="userSpaceOnUse" x1="0" y1="53.5" x2="80" y2="53.5" gradientTransform="matrix(1 0 0 -1 0 80)">
		<stop  offset="0" style="stop-color:#00B2E9"/>
		<stop  offset="1" style="stop-color:#157FFF"/>
	</linearGradient>
	<path fill="url(#SVGID_1_)" d="M45,5.2c0,0,0-0.1,0-0.2c0-2.8-2.2-5-5-5s-5,2.2-5,5c0,0,0,0.1,0,0.2C15.2,7.8,0,24.6,0,45h1.4
		c1.8-3,5-5,8.6-5s6.9,2,8.6,5h2.8c1.8-3,4.9-5,8.6-5c1.9,0,3.5,0.5,5,1.4V53c3.3,0,6.8,0,10.1,0V41.4c1.5-0.9,3.1-1.4,5-1.4
		c3.6,0,6.9,2,8.6,5h2.6c1.8-3,5-5,8.6-5s6.9,2,8.6,5H80C80,24.5,64.8,7.8,45,5.2z"/>
</g>
<g>
	<g>
		<path fill="#EFDD00" d="M31.8,56.5c-0.3,0-0.5-0.1-0.8-0.2c-0.6-0.4-0.9-1.2-0.8-2l5.3-16.8h-5.9c-0.5,0-0.9-0.1-1.1-0.4
			c-0.2-0.4-0.4-0.7-0.4-1.1l2.1-18c0.1-0.8,0.8-1.6,1.5-1.6h16.4c0.5,0,1,0.5,1.2,1c0.2,0.4,0.4,0.9,0.1,1.2L45.2,30h7.2
			c0.6,0,1.1,0.6,1.4,1.2c0.2,0.6,0.1,1.4-0.3,1.9L32.9,56C32.6,56.4,32.1,56.5,31.8,56.5z"/>
		<path fill="#FFFFFF" d="M48,18.8l-5,13.8h9.5L31.8,55.2l5.9-19h-8l2.1-17.5h15.7 M48,15H31.8c-1.6,0-2.9,1.3-3.1,2.9l-2.1,17.9
			c-0.1,0.9,0.1,1.5,0.8,2.2c0.6,0.6,1.5,0.8,2.4,0.8h3.8l-4.6,15c-0.5,1.4,0.1,3,1.4,3.8c0.5,0.2,1,0.5,1.5,0.5
			c0.9,0,1.7-0.4,2.4-1l20.8-22.9c0.9-0.9,1-2.4,0.5-3.5c-0.4-1-1.5-1.9-2.8-1.9h-5l3.5-9.4c0.4-1,0.2-2.1-0.4-2.9
			C50,15.5,49.1,15,48,15L48,15z"/>
	</g>
</g>
</svg>
