<?xml version="1.0" encoding="utf-8"?>
<!-- Generator: Adobe Illustrator 18.1.1, SVG Export Plug-In . SVG Version: 6.00 Build 0)  -->
<!DOCTYPE svg PUBLIC "-//W3C//DTD SVG 1.1//EN" "http://www.w3.org/Graphics/SVG/1.1/DTD/svg11.dtd">
<svg version="1.1" id="Layer_1" xmlns="http://www.w3.org/2000/svg" xmlns:xlink="http://www.w3.org/1999/xlink" x="0px" y="0px"
	 viewBox="0 0 80 80" enable-background="new 0 0 80 80" xml:space="preserve">
<path fill="#2CC8FF" d="M76.5,56.7l-8.6-5l7.5-4.4l-3.8-6.6l-11.3,6.5l-12.7-7.3l12.6-7.4l11.4,6.5l3.8-6.6l-7.5-4.4l8.6-5l-3.8-6.6
	l-8.6,5v-8.6h-7.6v13l-12.8,7.5V18.7l11.4-6.6l-3.8-6.6l-7.6,4.5v-10h-7.6v10l-7.5-4.4l-3.8,6.6l11.2,6.5v14.8l-12.6-7.4V12.9h-7.6
	v8.8l-8.6-5l-3.8,6.6l8.6,5l-7.5,4.4l3.8,6.6l11.2-6.5l12.8,7.1l-12.6,7.4L8.4,40.8l-3.8,6.6l7.5,4.4l-8.6,5l3.8,6.6l8.6-5v8.6h7.6
	v-13l12.8-7.5v14.6l-11.4,6.6l3.8,6.6l7.5-4.4v10h7.6v-10l7.5,4.4l3.8-6.6l-11.2-6.5V46.4l12.6,7.4v13.1H64v-8.7l8.6,5L76.5,56.7z"
	/>
<path fill="#3B78FF" d="M64,43.8c0-0.5-0.1-1-0.2-1.5C62.6,37.7,58,30,58,30s-4.6,7.7-5.8,12.3c-0.1,0.5-0.2,1-0.2,1.5
	c0,0.1,0,0.1,0,0.2c0,3.3,2.7,6,6,6s6-2.7,6-6C64,43.9,64,43.9,64,43.8z"/>
<path fill="#3B78FF" d="M46,41.8c0-0.5-0.1-1-0.2-1.5C44.6,35.7,40,28,40,28s-4.6,7.7-5.8,12.3c-0.1,0.5-0.2,1-0.2,1.5
	c0,0.1,0,0.1,0,0.2c0,3.3,2.7,6,6,6s6-2.7,6-6C46,41.9,46,41.9,46,41.8z"/>
<path fill="#3B78FF" d="M28,43.8c0-0.5-0.1-1-0.2-1.5C26.6,37.7,22,30,22,30s-4.6,7.7-5.8,12.3c-0.1,0.5-0.2,1-0.2,1.5
	c0,0.1,0,0.1,0,0.2c0,3.3,2.7,6,6,6s6-2.7,6-6C28,43.9,28,43.9,28,43.8z"/>
</svg>
