<?xml version="1.0" encoding="utf-8"?>
<!-- Generator: Adobe Illustrator 18.1.1, SVG Export Plug-In . SVG Version: 6.00 Build 0)  -->
<!DOCTYPE svg PUBLIC "-//W3C//DTD SVG 1.1//EN" "http://www.w3.org/Graphics/SVG/1.1/DTD/svg11.dtd">
<svg version="1.1" id="Layer_1" xmlns="http://www.w3.org/2000/svg" xmlns:xlink="http://www.w3.org/1999/xlink" x="0px" y="0px"
	 viewBox="0 0 80 80" enable-background="new 0 0 80 80" xml:space="preserve">
<g>
	<path fill="#0964B7" d="M35,67.5c0,1.4-1.1,2.5-2.5,2.5S30,68.9,30,67.5c0-2.8-2.2-5-5-5s-5,2.2-5,5C20,74.4,25.8,80,32.6,80
		s12.5-5.6,12.5-12.5V53c-3.3,0-6.8,0-10.1,0V67.5z"/>
	
		<linearGradient id="SVGID_1_" gradientUnits="userSpaceOnUse" x1="0" y1="53.5" x2="80" y2="53.5" gradientTransform="matrix(1 0 0 -1 0 80)">
		<stop  offset="0" style="stop-color:#00B2E9"/>
		<stop  offset="1" style="stop-color:#157FFF"/>
	</linearGradient>
	<path fill="url(#SVGID_1_)" d="M45,5.2c0,0,0-0.1,0-0.2c0-2.8-2.2-5-5-5s-5,2.2-5,5c0,0,0,0.1,0,0.2C15.2,7.8,0,24.6,0,45h1.4
		c1.8-3,5-5,8.6-5s6.9,2,8.6,5h2.8c1.8-3,4.9-5,8.6-5c1.9,0,3.5,0.5,5,1.4V53c3.3,0,6.8,0,10.1,0V41.4c1.5-0.9,3.1-1.4,5-1.4
		c3.6,0,6.9,2,8.6,5h2.6c1.8-3,5-5,8.6-5s6.9,2,8.6,5H80C80,24.5,64.8,7.8,45,5.2z"/>
	<path fill="#36E3FF" d="M23.6,25c0-0.5-0.1-1.1-0.2-1.6c-1.3-4.8-6.1-12.9-6.1-12.9s-4.8,8.1-6.1,12.9C11.1,23.9,11,24.5,11,25
		c0,0.1,0,0.1,0,0.2c0,3.5,2.8,6.3,6.3,6.3s6.3-2.8,6.3-6.3C23.6,25.1,23.6,25.1,23.6,25z"/>
	<path fill="#36E3FF" d="M47.3,22.7c0-0.5-0.1-1.1-0.2-1.6C45.8,16.3,41,8.2,41,8.2s-4.8,8.1-6.1,12.9c-0.1,0.5-0.2,1.1-0.2,1.6
		c0,0.1,0,0.1,0,0.2c0,3.5,2.8,6.3,6.3,6.3s6.3-2.8,6.3-6.3C47.3,22.8,47.3,22.8,47.3,22.7z"/>
	<path fill="#36E3FF" d="M71.4,24.7c0-0.5-0.1-1.1-0.2-1.6c-1.3-4.8-6.1-12.9-6.1-12.9s-4.8,8.1-6.1,12.9c-0.1,0.5-0.2,1.1-0.2,1.6
		c0,0.1,0,0.1,0,0.2c0,3.5,2.8,6.3,6.3,6.3s6.3-2.8,6.3-6.3C71.4,24.8,71.4,24.8,71.4,24.7z"/>
	<path fill="#36E3FF" d="M23.6,52c0-0.5-0.1-1.1-0.2-1.6c-1.3-4.8-6.1-12.9-6.1-12.9s-4.8,8.1-6.1,12.9C11.1,50.9,11,51.5,11,52
		c0,0.1,0,0.1,0,0.2c0,3.5,2.8,6.3,6.3,6.3s6.3-2.8,6.3-6.3C23.6,52.1,23.6,52.1,23.6,52z"/>
	<path fill="#36E3FF" d="M47.3,49.7c0-0.5-0.1-1.1-0.2-1.6C45.8,43.3,41,35.2,41,35.2s-4.8,8.1-6.1,12.9c-0.1,0.5-0.2,1.1-0.2,1.6
		c0,0.1,0,0.1,0,0.2c0,3.5,2.8,6.3,6.3,6.3s6.3-2.8,6.3-6.3C47.3,49.8,47.3,49.8,47.3,49.7z"/>
	<path fill="#36E3FF" d="M71.4,51.7c0-0.5-0.1-1.1-0.2-1.6c-1.3-4.8-6.1-12.9-6.1-12.9s-4.8,8.1-6.1,12.9c-0.1,0.5-0.2,1.1-0.2,1.6
		c0,0.1,0,0.1,0,0.2c0,3.5,2.8,6.3,6.3,6.3s6.3-2.8,6.3-6.3C71.4,51.8,71.4,51.8,71.4,51.7z"/>
</g>
</svg>
