<?xml version="1.0" encoding="utf-8"?>
<!-- Generator: Adobe Illustrator 18.1.1, SVG Export Plug-In . SVG Version: 6.00 Build 0)  -->
<!DOCTYPE svg PUBLIC "-//W3C//DTD SVG 1.1//EN" "http://www.w3.org/Graphics/SVG/1.1/DTD/svg11.dtd">
<svg version="1.1" id="Layer_1" xmlns="http://www.w3.org/2000/svg" xmlns:xlink="http://www.w3.org/1999/xlink" x="0px" y="0px"
	 viewBox="0 0 80 80" enable-background="new 0 0 80 80" xml:space="preserve">
<g>
	<path fill="#0964B7" d="M35,67.5c0,1.4-1.1,2.5-2.5,2.5S30,68.9,30,67.5c0-2.8-2.2-5-5-5s-5,2.2-5,5C20,74.4,25.8,80,32.6,80
		s12.5-5.6,12.5-12.5V53c-3.3,0-6.8,0-10.1,0V67.5z"/>
	
		<linearGradient id="SVGID_1_" gradientUnits="userSpaceOnUse" x1="0" y1="53.5" x2="80" y2="53.5" gradientTransform="matrix(1 0 0 -1 0 80)">
		<stop  offset="0" style="stop-color:#00B2E9"/>
		<stop  offset="1" style="stop-color:#157FFF"/>
	</linearGradient>
	<path fill="url(#SVGID_1_)" d="M45,5.2c0,0,0-0.1,0-0.2c0-2.8-2.2-5-5-5s-5,2.2-5,5c0,0,0,0.1,0,0.2C15.2,7.8,0,24.6,0,45h1.4
		c1.8-3,5-5,8.6-5s6.9,2,8.6,5h2.8c1.8-3,4.9-5,8.6-5c1.9,0,3.5,0.5,5,1.4V53c3.3,0,6.8,0,10.1,0V41.4c1.5-0.9,3.1-1.4,5-1.4
		c3.6,0,6.9,2,8.6,5h2.6c1.8-3,5-5,8.6-5s6.9,2,8.6,5H80C80,24.5,64.8,7.8,45,5.2z"/>
</g>
<g>
	<path d="M59.6,43c-3.1,0-5.5-2.5-5.5-5.5s2.5-5.5,5.5-5.5c3.1,0,5.5,2.5,5.5,5.5c0,0.2,0,0.5,0,0.7l3.6,0.5c0-0.4,0.1-0.9,0.1-1.2
		c0-5.1-4.1-9.2-9.3-9.2s-9.3,4.1-9.3,9.2s4.1,9.2,9.3,9.2H80V43H59.6L59.6,43z M28.1,68.9c0,6.1,5,11.1,11.1,11.1s11.1-5,11.1-11.1
		c0-0.9-0.1-1.9-0.4-2.8L46.4,67c0.1,0.6,0.2,1.1,0.2,1.8c0,4.1-3.4,7.4-7.4,7.4s-7.4-3.4-7.4-7.4c0-4.1,3.4-7.4,7.4-7.4H80v-3.8
		H39.2C33.1,57.8,28.1,62.8,28.1,68.9z M24.4,41.1c0-5.1,4.1-9.2,9.2-9.2s9.2,4.1,9.2,9.2c0,1.4-0.2,2.6-0.9,3.9l3.4,1.5
		c0.8-1.6,1.1-3.5,1.1-5.4c0-7.1-5.8-13-13-13s-12.8,5.7-12.8,13s5.8,13,13,13H80v-3.8H33.6C28.6,50.4,24.4,46.2,24.4,41.1
		L24.4,41.1z"/>
</g>
</svg>
