<?xml version="1.0" encoding="utf-8"?>
<!-- Generator: Adobe Illustrator 18.1.1, SVG Export Plug-In . SVG Version: 6.00 Build 0)  -->
<!DOCTYPE svg PUBLIC "-//W3C//DTD SVG 1.1//EN" "http://www.w3.org/Graphics/SVG/1.1/DTD/svg11.dtd">
<svg version="1.1" id="Layer_1" xmlns="http://www.w3.org/2000/svg" xmlns:xlink="http://www.w3.org/1999/xlink" x="0px" y="0px"
	 viewBox="-7 9 64 64" enable-background="new -7 9 64 64" xml:space="preserve">
<path fill="#2CC8FF" d="M54.2,54.4l-6.9-4l6-3.5l-3-5.3l-9,5.2L31.1,41l10.1-5.9l9.1,5.2l3-5.3l-6-3.5l6.9-4l-3-5.3l-6.9,4l0-6.9
	l-6.1,0l0,10.4L28,35.7V24l9.1-5.3l-3-5.3L28,17V9h-6.1v8l-6-3.5l-3,5.3l9,5.2v11.8l-10.1-5.9l0-10.5l-6.1,0l0,7l-6.9-4l-3,5.3
	l6.9,4l-6,3.5l3,5.3l9-5.2L18.9,41L8.8,46.9l-9.1-5.2l-3,5.3l6,3.5l-6.9,4l3,5.3l6.9-4l0,6.9l6.1,0l0-10.4L22,46.3V58l-9.1,5.3
	l3,5.3l6-3.5v8h6.1v-8l6,3.5l3-5.3l-9-5.2V46.2l10.1,5.9l0,10.5l6.1,0l0-7l6.9,4L54.2,54.4z"/>
<g>
	<path fill="#EFDD00" d="M18.5,60.2c-0.2,0-0.4-0.1-0.6-0.2c-0.5-0.3-0.7-0.9-0.6-1.5L21.9,44h-5.2c-0.4,0-0.7-0.1-0.9-0.4
		c-0.2-0.3-0.3-0.6-0.3-1l1.8-15.4c0.1-0.6,0.6-1.2,1.2-1.2h14c0.4,0,0.8,0.3,1,0.7c0.2,0.3,0.3,0.8,0.1,1.2L30,38h6.3
		c0.5,0,0.9,0.3,1.1,0.8s0.1,1-0.2,1.4L19.4,59.8C19.2,60.1,18.8,60.2,18.5,60.2z"/>
	<path fill="#FFFFFF" d="M32.5,28l-4.3,11h8.1L18.5,58.9L23.6,43h-6.9l1.8-15H33 M32.5,25h-14c-1.3,0-2.3,1-2.5,2.2l-1.8,15.3
		c-0.1,0.7,0.1,1.3,0.6,1.8c0.5,0.5,1.2,0.7,1.9,0.7h3.5l-4.1,13.1c-0.4,1.1,0.1,2.4,1.1,3c0.4,0.2,0.8,0.4,1.2,0.4
		c0.7,0,1.4-0.3,1.9-0.8L38.2,41c0.7-0.7,0.8-1.7,0.4-2.6c-0.4-0.9-1.3-1.4-2.3-1.4h-4.6l3.1-8.5c0.3-0.8,0.2-1.7-0.3-2.4
		C34.1,25.5,33.3,25,32.5,25L32.5,25z"/>
</g>
</svg>
