<?xml version="1.0" encoding="utf-8"?>
<!-- Generator: Adobe Illustrator 18.1.1, SVG Export Plug-In . SVG Version: 6.00 Build 0)  -->
<!DOCTYPE svg PUBLIC "-//W3C//DTD SVG 1.1//EN" "http://www.w3.org/Graphics/SVG/1.1/DTD/svg11.dtd">
<svg version="1.1" id="Layer_1" xmlns="http://www.w3.org/2000/svg" xmlns:xlink="http://www.w3.org/1999/xlink" x="0px" y="0px"
	 viewBox="0 0 80 80" enable-background="new 0 0 80 80" xml:space="preserve">
<path fill="#2CC8FF" d="M76.5,56.7l-8.6-5l7.5-4.4l-3.8-6.6l-11.3,6.5l-12.7-7.3l12.6-7.4L71.6,39l3.8-6.6L67.9,28l8.6-5l-3.8-6.6
	l-8.6,5v-8.6h-7.6v13l-12.8,7.5V18.7l11.4-6.6l-3.8-6.6L43.7,10V0h-7.6v10l-7.5-4.4l-3.8,6.6L36,18.7v14.8l-12.6-7.4V12.9h-7.6v8.8
	l-8.6-5l-3.8,6.6l8.6,5l-7.5,4.4l3.8,6.6l11.2-6.5l12.8,7.1l-12.6,7.4L8.4,40.8l-3.8,6.6l7.5,4.4l-8.6,5l3.8,6.6l8.6-5V67h7.6V54
	l12.8-7.5v14.6l-11.4,6.6l3.8,6.6l7.5-4.4v10h7.6v-10l7.5,4.4l3.8-6.6l-11.2-6.5V46.4l12.6,7.4v13.1H64v-8.7l8.6,5L76.5,56.7z"/>
</svg>
