<?xml version="1.0" encoding="utf-8"?>
<!-- Generator: Adobe Illustrator 18.1.1, SVG Export Plug-In . SVG Version: 6.00 Build 0)  -->
<!DOCTYPE svg PUBLIC "-//W3C//DTD SVG 1.1//EN" "http://www.w3.org/Graphics/SVG/1.1/DTD/svg11.dtd">
<svg version="1.1" id="Layer_1" xmlns="http://www.w3.org/2000/svg" xmlns:xlink="http://www.w3.org/1999/xlink" x="0px" y="0px"
	 viewBox="0 0 80 80" enable-background="new 0 0 80 80" xml:space="preserve">
<path opacity="0.63" fill="#39DAFF" d="M38.6,68.3l-4.4-2.5l3.8-2.1l-1.9-3.2l-5.6,3.1l-6.4-3.6l6.4-3.6l5.6,3.2l1.9-3.2l-3.8-2.1
	l4.4-2.5l-1.9-3.4l-4.4,2.5v-4.4h-3.8v6.5l-6.4,3.6v-7.4l5.6-3.2L26,42.7l-3.8,2.1v-5h-3.8v5l-3.8-2.1l-1.9,3.2l5.6,3.2v7.4
	l-6.4-3.6v-6.5H8.4v4.4L4,48.3l-1.9,3.2l4.4,2.5l-3.8,2.1l1.9,3.2l5.6-3.2l6.4,3.8l-6.4,3.6l-5.6-3.2l-2,3.4l3.8,2.1L2,68.3l1.9,3.3
	l4.4-2.5v4.4H12v-6.5l6.4-3.6v7.4l-5.6,3.2l1.9,3.2l3.8-2.1v5h3.8v-5l3.8,2.1l1.9-3.2l-5.6-3.2v-7.4l6.4,3.6v6.5h3.8v-4.4l4.4,2.5
	L38.6,68.3z"/>
<path opacity="0.63" fill="#39DAFF" d="M38.6,28.3l-4.4-2.5l3.8-2.1l-1.9-3.2l-5.6,3.1l-6.4-3.6l6.4-3.6l5.6,3.2l1.9-3.2l-3.8-2.1
	l4.4-2.5l-1.9-3.4l-4.4,2.5V6.4h-3.8v6.5l-6.4,3.6V9.2l5.6-3.3L26,2.7l-3.8,2.1v-4.9h-3.8v5l-3.8-2.1l-1.9,3.2l5.6,3.3v7.4l-6.4-3.6
	V6.6H8.4v4.4L4,8.4l-1.9,3.2l4.4,2.5l-3.8,2.1l1.9,3.2l5.6-3.2l6.4,3.6l-6.4,3.6l-5.6-3.2l-2,3.4l3.8,2.1L2,28.3l1.9,3.2l4.4-2.5
	v4.4H12v-6.5l6.4-3.6v7.4l-5.6,3.2l1.9,3.2l3.8-2.1v5h3.8v-5l3.8,2.1l1.9-3.2l-5.6-3.2v-7.4l6.4,3.6v6.5h3.8v-4.4l4.4,2.5L38.6,28.3
	z"/>
<path opacity="0.63" fill="#39DAFF" d="M78,28.3l-4.4-2.5l3.8-2.1l-1.9-3.4l-5.6,3.2l-6.4-3.6l6.4-3.6l5.6,3.2l1.9-3.2l-3.8-2.1
	l4.4-2.5l-1.9-3.2l-4.4,2.5V6.6H68v6.5l-6.4,3.6V9.3l5.6-3.3l-1.9-3.3l-3.7,2.1v-5h-3.8v5l-3.8-2.1l-1.9,3.2l5.6,3.3v7.4l-6.4-3.6
	V6.6h-3.8v4.4l-4.4-2.5l-1.9,3.2l4.4,2.5l-3.8,2.1l1.9,3.2l5.6-3.2l6.4,3.6l-6.4,3.6L44,20.3l-2,3.4l3.8,2.1l-4.4,2.5l1.9,3.2
	l4.4-2.5v4.4h3.8v-6.5l6.4-3.6v7.4l-5.6,3.2l1.9,3.2l3.8-2.1v5h3.8v-5l3.8,2.1l1.9-3.2l-5.6-3.2v-7.4l6.4,3.6v6.5h3.8v-4.4l4.4,2.5
	L78,28.3z"/>
<path opacity="0.63" fill="#39DAFF" d="M78,68.3l-4.4-2.5l3.8-2.1l-1.9-3.4l-5.6,3.2l-6.4-3.6l6.4-3.6l5.6,3.2l1.9-3.2l-3.8-2.1
	l4.4-2.5l-1.9-3.2l-4.4,2.5v-4.4H68v6.5l-6.4,3.6v-7.4l5.6-3.2l-1.9-3.2l-3.7,2.1v-5h-3.8v5l-3.8-2.1l-1.9,3.2l5.6,3.2v7.4l-6.4-3.6
	v-6.5h-3.8v4.4l-4.4-2.5l-1.9,3.2l4.4,2.5l-3.8,2.1l1.9,3.2l5.6-3.2l6.4,3.6l-6.4,3.6L44,60.3l-2,3.4l3.8,2.1l-4.4,2.5l1.9,3.3
	l4.4-2.5v4.4h3.8v-6.5l6.4-3.6v7.4l-5.6,3.2l1.9,3.2l3.8-2.1v5h3.8v-5l3.8,2.1l1.9-3.2l-5.6-3.2v-7.4l6.4,3.6v6.5h3.8v-4.4l4.4,2.5
	L78,68.3z"/>
<path fill="#00CFFF" d="M73,55.1l-7.8-4.4l6.7-3.9l-3.4-5.9l-10.2,5.9L46.9,40l11.4-6.6l10.2,5.9l3.4-5.9l-6.9-3.9l7.8-4.6L69.6,19
	l-7.8,4.4v-7.8H55v11.9l-11.4,6.6V20.9l10.2-5.9L50.2,9l-6.9,3.9v-9h-6.9v9L29.8,9l-3.5,5.9l10.2,5.9v13.3L25,27.6V15.8h-6.9v7.8
	L10.4,19L7,24.9l7.8,4.4l-6.7,3.9l3.4,5.9l10.2-5.9l11.4,6.6l-11.4,6.6l-10.2-5.9l-3.5,6.2l6.9,3.9L7,55.2l3.4,5.8l7.8-4.4v7.8H25
	V52.5l11.4-6.6v13.2l-10.2,5.9l3.5,5.9l6.9-3.9v9h6.9v-9l6.7,3.9l3.5-5.9l-10.2-5.9V45.8L55,52.4v11.9h6.9v-7.8l7.8,4.6L73,55.1z"/>
</svg>
