<?xml version="1.0" encoding="utf-8"?>
<!-- Generator: Adobe Illustrator 18.1.1, SVG Export Plug-In . SVG Version: 6.00 Build 0)  -->
<!DOCTYPE svg PUBLIC "-//W3C//DTD SVG 1.1//EN" "http://www.w3.org/Graphics/SVG/1.1/DTD/svg11.dtd">
<svg version="1.1" id="Layer_1" xmlns="http://www.w3.org/2000/svg" xmlns:xlink="http://www.w3.org/1999/xlink" x="0px" y="0px"
	 viewBox="0 0 80 80" enable-background="new 0 0 80 80" xml:space="preserve">
<circle fill="#FFFFFF" cx="40.2" cy="39.5" r="27.2"/>
<radialGradient id="SVGID_1_" cx="40" cy="40" r="39.5032" fx="37.6583" fy="36.5656" gradientUnits="userSpaceOnUse">
	<stop  offset="0" style="stop-color:#FFB300"/>
	<stop  offset="1" style="stop-color:#FF3300"/>
</radialGradient>
<path fill="url(#SVGID_1_)" d="M71.9,40l7.1-8.9l-10.2-5L71.2,15H59.9L57.4,3.9l-10.2,5L40,0l-7.1,8.9l-10.3-5L20.1,15H8.7l2.5,11.1
	L1,31l7.1,8.9L1,48.7l10.2,5.1L8.7,65h11.4l2.5,11.1l10.2-5L40,80l7.1-8.9l10.2,5L59.9,65h11.4l-2.5-11.1L79,49L71.9,40L71.9,40z
	 M40,65.8c-13.8,0-24.9-11.5-24.9-25.8S26.2,14.2,40,14.2S64.9,25.8,64.9,40S53.8,65.8,40,65.8z M20,40c0-11,9-20,20-20s20,9,20,20
	s-9,20-20,20S20,51,20,40z"/>
</svg>
