<?xml version="1.0" encoding="utf-8"?>
<!-- Generator: Adobe Illustrator 18.1.1, SVG Export Plug-In . SVG Version: 6.00 Build 0)  -->
<!DOCTYPE svg PUBLIC "-//W3C//DTD SVG 1.1//EN" "http://www.w3.org/Graphics/SVG/1.1/DTD/svg11.dtd">
<svg version="1.1" id="Layer_1" xmlns="http://www.w3.org/2000/svg" xmlns:xlink="http://www.w3.org/1999/xlink" x="0px" y="0px"
	 viewBox="0 0 80 80" enable-background="new 0 0 80 80" xml:space="preserve">
<g>
	<path d="M13.2,72c-1.1,0-2-0.9-2-2v-9c0-1.1,0.9-2,2-2h30.3v-9.9c0-0.8,0.4-1.5,1.1-1.8c0.3-0.1,0.6-0.2,0.9-0.2
		c0.5,0,0.9,0.2,1.3,0.5l21.6,20.9c0.7,0.5,0.9,1.4,0.6,2.2c-0.3,0.8-1,1.3-1.9,1.3H13.2z"/>
	<path fill="#FFFFFF" d="M45.6,49.1L67.2,70h-54v-9h32.3L45.6,49.1 M45.6,45.1c-0.6,0-1.2,0.1-1.7,0.4c-1.4,0.7-2.3,2.1-2.3,3.6V57
		H13.2c-2.2,0-4,1.8-4,4v9c0,2.2,1.8,4,4,4h53.9c1.7,0,3.2-1.1,3.8-2.7c0.6-1.6,0.1-3.4-1.2-4.4L48.1,46
		C47.4,45.4,46.5,45.1,45.6,45.1L45.6,45.1z"/>
</g>
<path stroke="#FFFFFF" stroke-width="2" stroke-miterlimit="10" d="M9,21.1"/>
</svg>
